PathFileType	4	(X/Y/Z)	Exemple_fichier.trc																																																																																																																															
DataRate	CameraRate	NumFrames	NumMarkers	Units	OrigDataRate	OrigDataStartFrame	OrigNumFrames																																																																																																																											
200	200	6	43	mm	200	1751	2000																																																																																																																											
Frame#	Time	LFHD			RFHD			RBHD			LBHD			C7			T10			R10			CLAV			STRN			LSHO			LUPA			LELB			LFRA			LWRA			LWRB			LFIN0			LFINx			LFINy			RSHO			RUPA			RELB			RFRA			RWRA			RWRB			RFIN0			RFINx			RFINy			LASI			RASI			RBSI			LBSI			LTHI			LKNE			LTIB			LANK			LHEE			LTOE			RTHI			RKNE			RTIB			RANK			RHEE			RTOE		
		X1	Y1	Z1	X2	Y2	Z2	X3	Y3	Z3	X4	Y4	Z4	X5	Y5	Z5	X6	Y6	Z6	X7	Y7	Z7	X8	Y8	Z8	X9	Y9	Z9	X10	Y10	Z10	X11	Y11	Z11	X12	Y12	Z12	X13	Y13	Z13	X14	Y14	Z14	X15	Y15	Z15	X16	Y16	Z16	X17	Y17	Z17	X18	Y18	Z18	X19	Y19	Z19	X20	Y20	Z20	X21	Y21	Z21	X22	Y22	Z22	X23	Y23	Z23	X24	Y24	Z24	X25	Y25	Z25	X26	Y26	Z26	X27	Y27	Z27	X28	Y28	Z28	X29	Y29	Z29	X30	Y30	Z30	X31	Y31	Z31	X32	Y32	Z32	X33	Y33	Z33	X34	Y34	Z34	X35	Y35	Z35	X36	Y36	Z36	X37	Y37	Z37	X38	Y38	Z38	X39	Y39	Z39	X40	Y40	Z40	X41	Y41	Z41	X42	Y42	Z42	X43	Y43	Z43
																																																																																																																																		
1751	8.75	379.84769	284.93744	1444.22668	484.1008	281.09088	1435.46826	486.62442	132.53964	1405.71179	376.48965	131.33827	1415.14539	421.99265	83.47091	1288.07825	423.66321	53.10567	1146.68359	583.15204	87.9184	1180.21143	432.26987	206.21532	1227.24695	432.44556	314.61572	1099.47571	280.022	173.53036	1251.20557	217.78445	228.18068	1109.84937	179.20276	261.56143	972.57611	215.12445	355.83237	1025.69287	276.33847	447.70621	1057.98999	265.21655	466.43991	1015.91876	300.26999	499.64127	1023.33234	316.38184	512.03876	1027.69531	301.31525	494.67892	1058.20715	577.74597	152.01318	1250.29871	690.37164	235.26759	1098.51819	741.6618	244.67377	1039.5061	633.69672	375.96436	1063.79846	583.37714	408.82611	1044.16748	618.27393	435.37482	1064.01819	580.94293	469.39755	1078.22656	564.99268	479.33649	1087.07581	561.31836	444.4577	1079.22656	305.82443	265.6568	892.37207	542.20752	271.40643	888.87885	461.77075	95.36607	910.04132	389.99194	96.92097	911.53333	334.59109	297.57297	632.73828	288.36362	162.39902	446.64902	317.6741	196.36983	322.02676	308.25827	124.39465	80.44656	356.80856	88.47847	15.32002	288.96066	329.00089	50.07257	529.72394	286.00995	557.3894	601.53101	177.49451	440.78915	584.18164	196.8821	236.81595	607.02191	144.82446	76.77638	571.75055	93.38755	14.82565	612.64294	339.41043	47.65689
1752	8.755	380.13788	285.07016	1444.17004	484.45871	281.09579	1435.45154	486.82584	132.60313	1405.76074	376.76553	131.46486	1415.18445	422.32935	83.41878	1288.08289	423.88806	53.14332	1146.73743	583.43945	87.97913	1180.24817	432.42551	206.15178	1227.26794	432.56744	314.52298	1099.38989	280.21957	173.36153	1251.22449	218.13196	227.67688	1109.69128	179.2946	261.10568	972.4967	215.24579	355.43323	1025.23694	276.43283	447.63766	1057.06458	265.25189	466.27615	1014.96027	300.39917	499.51602	1022.26135	316.38385	511.75809	1026.57117	301.34042	494.47476	1057.07654	577.99438	152.10149	1250.25635	690.50543	235.35677	1098.33618	741.70526	244.74492	1039.24658	633.8927	376.02158	1063.41138	583.41284	408.83609	1043.49219	618.25714	435.45651	1062.9845	580.8197	469.50177	1077.37073	565.00592	479.40424	1086.2406	561.31042	444.55963	1078.43262	306.0661	265.63806	892.44476	542.38812	271.53854	888.79846	462.00571	95.35429	910.00153	390.2421	96.9231	911.47986	334.67627	297.60501	632.80023	288.47116	162.42671	446.642	317.75513	196.56187	322.12131	308.29327	124.35219	80.4632	356.74359	88.48937	15.23803	288.9502	329.02286	50.06741	529.77393	286.01685	557.37787	601.70905	177.46657	440.76605	584.2171	196.82845	236.78888	607.06799	144.83694	76.74404	571.78156	93.4062	14.77257	612.66223	339.41046	47.68418
1753	8.76	380.48157	285.19165	1444.00671	484.84097	281.3566	1435.17517	487.02429	132.71638	1405.72522	377.25739	131.57164	1415.28613	422.41357	83.43874	1288.1228	424.02124	53.24231	1146.74133	583.66138	87.99611	1180.26465	432.54929	206.18153	1227.26575	432.72668	314.55789	1099.4364	280.38907	173.31519	1251.28369	218.21404	227.45059	1109.74866	179.496	260.62073	972.29474	215.3786	355.17813	1024.74622	276.58157	447.5589	1056.07434	265.29034	465.96451	1013.94855	300.26291	499.27319	1021.07953	316.45718	511.65933	1025.31226	301.38742	494.43753	1056.01758	578.05396	152.02556	1250.18103	690.5799	235.3678	1098.17932	741.85193	244.83627	1039.07202	634.0733	376.32953	1062.77954	583.59479	408.80228	1042.9917	618.36273	435.56873	1062.32788	580.80261	469.51563	1076.65735	565.04309	479.5621	1085.43774	561.23486	444.65033	1077.71106	306.20334	265.63916	892.46741	542.38678	271.76947	888.7229	462.28983	95.29291	910.01868	390.47009	96.86255	911.46912	334.73279	297.58102	632.82562	288.49243	162.4196	446.70712	317.82031	196.30673	321.97025	308.3237	124.34017	80.40118	356.76901	88.48077	15.2973	288.93356	329.05707	50.0476	529.87103	286.03836	557.39923	601.81812	177.41393	440.77435	584.32306	196.73938	236.76273	607.15546	144.91609	76.81623	571.76917	93.41162	14.80446	612.6134	339.34732	47.62072
1754	8.765	380.99069	285.12811	1443.99792	485.07434	281.36795	1435.19824	487.39175	132.90582	1405.68359	377.52353	131.67412	1415.35742	422.75058	83.42673	1288.1665	424.20325	53.24146	1146.82312	583.89197	88.01591	1180.1394	432.806	206.11676	1227.27014	432.85782	314.55481	1099.53394	280.58826	173.20657	1251.37476	218.32236	227.28271	1109.71997	179.64989	260.0025	972.24323	215.45395	354.81161	1024.22949	276.81226	447.39526	1055.06665	265.4812	465.58392	1012.77191	300.38788	498.91104	1019.83331	316.36612	511.4277	1024.15796	301.44757	494.39511	1054.83936	578.55377	152.11638	1250.29358	690.70428	235.43391	1098.00415	741.94116	244.83212	1038.88428	634.14966	376.39941	1062.23572	583.72693	408.84177	1042.21179	618.38245	435.57733	1061.64844	580.88959	469.69626	1075.92615	565.01874	479.64737	1084.76416	561.37543	444.72211	1077.05017	306.34106	265.58246	892.41547	542.56104	271.80307	888.75378	462.44598	95.29479	909.99811	390.51419	96.89415	911.47833	334.82965	297.49905	632.82306	288.57697	162.36496	446.76443	317.93088	196.27449	322.13916	308.30432	124.47785	80.41452	356.75159	88.51271	15.26458	288.94861	329.03918	50.0407	529.97357	286.01825	557.39862	601.91235	177.38962	440.75278	584.3858	196.75537	236.75381	607.1167	144.86069	76.79913	571.7442	93.41605	14.76254	612.6944	339.39618	47.70126
1755	8.77	381.1521	285.42154	1443.85547	485.40378	281.48587	1435.06934	487.63895	132.93143	1405.73499	377.70883	131.70782	1415.40759	423.07263	83.44162	1288.17529	424.81091	52.99697	1146.797	584.02502	88.03151	1180.02795	432.94162	206.0239	1227.25037	433.02301	314.55109	1099.58411	280.87906	173.06296	1251.42358	218.42125	226.85117	1109.57446	179.74596	259.4599	972.16199	215.72003	354.54846	1023.79346	276.93256	447.25552	1054.06506	265.56848	465.25687	1011.71838	300.44287	498.86545	1018.76343	316.41507	511.28574	1022.8869	301.45169	494.25864	1053.67126	578.74493	152.10751	1250.23389	690.94653	235.55513	1097.89978	742.02161	244.94914	1038.65161	634.22827	376.48508	1061.78711	582.0943	408.061	1042.41406	618.40356	435.67566	1060.97681	580.86359	469.8407	1075.2301	565.05267	479.66483	1083.97913	561.46124	444.84427	1076.30017	306.4881	265.50507	892.461	542.745	271.75467	888.74927	462.58218	95.27201	910.01056	390.6001	96.90878	911.50458	334.93155	297.50146	632.86334	288.616	162.32214	446.75659	318.02386	196.40758	322.14011	308.33929	124.43538	80.43117	356.75259	88.53294	15.25683	288.96066	329.00089	50.07257	530.02704	285.99036	557.40973	601.99225	177.39023	440.68835	584.36932	196.6978	236.74203	607.15845	144.82916	76.74628	571.75055	93.38755	14.82565	612.63342	339.30994	47.59482
1756	8.775	381.41187	285.48691	1443.75354	485.6687	281.61996	1434.87622	487.9285	133.16771	1405.89209	378.02536	131.84007	1415.48376	423.22644	83.44279	1288.18689	424.95255	53.12794	1146.76221	584.255	88.08894	1180.05139	433.19849	206.02583	1227.24146	433.07339	314.4765	1099.54688	281.09271	172.87799	1251.49988	218.77243	226.26006	1109.58191	179.84174	258.98917	972.06885	215.73595	354.19409	1023.35925	276.91885	447.28098	1053.05945	265.65533	465.02097	1010.55646	300.51392	498.42764	1017.44824	316.52991	511.09601	1021.65009	301.37155	494.13815	1052.37842	578.89996	152.18723	1250.15076	691.0506	235.60632	1097.75708	742.18127	244.9673	1038.55908	634.28345	376.67099	1061.28833	582.15656	408.0968	1041.88538	618.43481	435.76501	1060.33105	580.90851	469.94403	1074.37695	565.02844	479.81192	1083.16345	561.50464	444.99753	1075.63025	306.61395	265.38538	892.44226	542.87128	271.78928	888.78992	462.65433	95.26864	910.03448	390.89264	96.87171	911.49451	335.01099	297.54538	632.88068	288.67163	162.29318	446.77505	318.16107	196.29913	322.14493	308.38589	124.46314	80.42804	356.74359	88.48937	15.23803	288.96066	329.00089	50.07257	530.07141	286.00095	557.39569	602.09418	177.40402	440.76944	584.414	196.67462	236.72752	607.15845	144.82916	76.74628	571.76917	93.41162	14.80446	612.65857	339.40427	47.62743
